<?xml version="1.0" encoding="utf-8"?>
<svg xmlns="http://www.w3.org/2000/svg" fill="none" height="100%" overflow="visible" preserveAspectRatio="none" style="display: block;" viewBox="0 0 17 18" width="100%">
<path clip-rule="evenodd" d="M5.625 0V0.84375V1.6875H11.25V0.84375V0H12.9375V0.84375V1.6875H15.1875H16.875V3.375V14.625C16.875 16.1783 15.6158 17.4375 14.0625 17.4375H2.8125C1.2592 17.4375 0 16.1783 0 14.625V3.375V1.6875H1.6875H3.9375V0.84375V0H5.625ZM1.6875 3.375H15.1875V6.1875H1.6875V3.375ZM1.6875 7.875V14.625C1.6875 15.2463 2.19118 15.75 2.8125 15.75H14.0625C14.6838 15.75 15.1875 15.2463 15.1875 14.625V7.875H1.6875Z" fill="var(--fill-0, #1D1D1D)" fill-rule="evenodd" id="Vector"/>
</svg>