<?xml version="1.0" encoding="utf-8"?>
<svg xmlns="http://www.w3.org/2000/svg" fill="none" height="100%" overflow="visible" preserveAspectRatio="none" style="display: block;" viewBox="0 0 17 12" width="100%">
<path clip-rule="evenodd" d="M8.0626 2.31991C10.4021 2.32001 12.6521 3.18736 14.3477 4.74271C14.4754 4.86279 14.6794 4.86128 14.8052 4.73932L16.0257 3.55083C16.0893 3.48898 16.1248 3.40519 16.1243 3.31801C16.1238 3.23083 16.0873 3.14744 16.0228 3.08631C11.5726 -1.02877 4.55187 -1.02877 0.101643 3.08631C0.0371782 3.1474 0.000601796 3.23076 7.35963e-06 3.31794C-0.000587077 3.40512 0.0348495 3.48893 0.0984755 3.55083L1.31931 4.73932C1.44498 4.86146 1.64922 4.86297 1.77682 4.74271C3.47257 3.18726 5.72287 2.3199 8.0626 2.31991ZM8.05944 6.28971C9.3362 6.28963 10.5674 6.771 11.5138 7.64028C11.6418 7.76365 11.8435 7.76098 11.9682 7.63426L13.1791 6.39325C13.2429 6.32815 13.2783 6.23985 13.2774 6.14809C13.2764 6.05632 13.2393 5.96877 13.1742 5.905C10.2922 3.18572 5.8291 3.18572 2.9471 5.905C2.882 5.96876 2.84486 6.05637 2.84401 6.14816C2.84315 6.23995 2.87866 6.32825 2.94256 6.39325L4.15309 7.63426C4.27787 7.76098 4.47951 7.76365 4.60752 7.64028C5.5533 6.77158 6.78352 6.29025 8.05944 6.28971ZM10.434 8.91747C10.4359 9.01656 10.401 9.11211 10.3377 9.18153L8.29021 11.4906C8.23018 11.5584 8.14836 11.5966 8.06297 11.5966C7.97759 11.5966 7.89576 11.5584 7.83574 11.4906L5.78792 9.18153C5.72466 9.11205 5.68986 9.01648 5.69173 8.91738C5.69361 8.81829 5.732 8.72445 5.79783 8.65802C7.10543 7.42211 9.02052 7.42211 10.3281 8.65802C10.3939 8.7245 10.4322 8.81837 10.434 8.91747Z" fill="var(--fill-0, black)" fill-rule="evenodd" id="Wifi"/>
</svg>