<?xml version="1.0" encoding="utf-8"?>
<svg xmlns="http://www.w3.org/2000/svg" fill="none" height="100%" overflow="visible" preserveAspectRatio="none" style="display: block;" viewBox="0 0 17 17" width="100%">
<path clip-rule="evenodd" d="M1.52385 4.95252C1.52385 3.05892 3.05892 1.52385 4.95252 1.52385C6.29878 1.52385 7.46524 2.29964 8.02664 3.43201C8.32044 4.02462 8.93534 4.57156 9.7538 4.57156H12.4448C13.7072 4.57156 14.7306 5.59494 14.7306 6.85734C14.7306 7.54499 14.4278 8.16104 13.9459 8.58122L13.3715 9.08188L14.3729 10.2305L14.9473 9.72989C15.7471 9.03262 16.2544 8.00379 16.2544 6.85734C16.2544 4.75334 14.5488 3.04771 12.4448 3.04771H9.7538C9.66309 3.04771 9.50196 2.97709 9.39192 2.75514C8.58324 1.12399 6.89985 0 4.95252 0C2.21732 0 0 2.21732 0 4.95252V6.50569C0 7.81739 0.607789 8.98768 1.55415 9.74917L2.14777 10.2268L3.10307 9.03958L2.50946 8.56193C1.90712 8.07727 1.52385 7.3365 1.52385 6.50569V4.95252ZM7.40886 7.51407C7.8056 7.11733 8.44883 7.11733 8.84557 7.51407L11.9676 10.6362L12.5065 11.1749L11.4289 12.2525L10.8902 11.7137L8.88915 9.7127V15.4925V16.2544H7.36529V15.4925V9.7127L5.3643 11.7137L4.82554 12.2525L3.74801 11.1749L4.28677 10.6362L7.40886 7.51407Z" fill="var(--fill-0, #1D1D1D)" fill-rule="evenodd" id="Vector"/>
</svg>