<?xml version="1.0" encoding="utf-8"?>
<svg xmlns="http://www.w3.org/2000/svg" fill="none" height="100%" overflow="visible" preserveAspectRatio="none" style="display: block;" viewBox="0 0 30 25" width="100%">
<path d="M19.1579 18.4456C19.6265 18.9142 20.3863 18.9142 20.8549 18.4456C21.3236 17.977 21.3236 17.2172 20.8549 16.7485L20.0064 17.5971L19.1579 18.4456ZM15.2064 12.7971L16.0549 11.9485L15.2064 11.1L14.3579 11.9485L15.2064 12.7971ZM9.55787 16.7485C9.08924 17.2172 9.08924 17.977 9.55787 18.4456C10.0265 18.9142 10.7863 18.9142 11.2549 18.4456L10.4064 17.5971L9.55787 16.7485ZM14.0064 23.5971C14.0064 24.2598 14.5437 24.7971 15.2064 24.7971C15.8691 24.7971 16.4064 24.2598 16.4064 23.5971H15.2064H14.0064ZM24.7 19.4115C24.1181 19.7287 23.9036 20.4576 24.2208 21.0394C24.538 21.6213 25.2669 21.8359 25.8488 21.5187L25.2744 20.4651L24.7 19.4115ZM22.4064 9.19705L22.4072 7.99705H22.4064V9.19705ZM20.8944 9.19705L19.7326 9.49742C19.8695 10.0271 20.3473 10.3971 20.8944 10.3971V9.19705ZM3.5072 18.7517C3.94606 19.2483 4.70442 19.2951 5.20103 18.8563C5.69764 18.4174 5.74446 17.659 5.3056 17.1624L4.4064 17.9571L3.5072 18.7517ZM20.0064 17.5971L20.8549 16.7485L16.0549 11.9485L15.2064 12.7971L14.3579 13.6456L19.1579 18.4456L20.0064 17.5971ZM15.2064 12.7971L14.3579 11.9485L9.55787 16.7485L10.4064 17.5971L11.2549 18.4456L16.0549 13.6456L15.2064 12.7971ZM15.2064 12.7971H14.0064V23.5971H15.2064H16.4064V12.7971H15.2064ZM25.2744 20.4651L25.8488 21.5187C27.2533 20.753 28.3628 19.5414 29.0022 18.0751L27.9022 17.5954L26.8023 17.1157C26.376 18.0933 25.6363 18.901 24.7 19.4115L25.2744 20.4651ZM27.9022 17.5954L29.0022 18.0751C29.6416 16.6088 29.7745 14.9713 29.38 13.4211L28.217 13.7171L27.0541 14.0131C27.3172 15.0466 27.2286 16.1382 26.8023 17.1157L27.9022 17.5954ZM28.217 13.7171L29.38 13.4211C28.9854 11.8709 28.0858 10.4962 26.8232 9.51401L26.0864 10.4612L25.3496 11.4084C26.1914 12.0631 26.7911 12.9796 27.0541 14.0131L28.217 13.7171ZM26.0864 10.4612L26.8232 9.51401C25.5606 8.53184 24.0068 7.99811 22.4072 7.99705L22.4064 9.19705L22.4056 10.3971C23.472 10.3978 24.5079 10.7536 25.3496 11.4084L26.0864 10.4612ZM22.4064 9.19705V7.99705H20.8944V9.19705V10.3971H22.4064V9.19705ZM20.8944 9.19705L22.0562 8.89668C21.6476 7.31616 20.886 5.84883 19.8286 4.60502L18.9143 5.38224L18 6.15946C18.8224 7.12687 19.4148 8.26812 19.7326 9.49742L20.8944 9.19705ZM18.9143 5.38224L19.8286 4.60502C18.7713 3.36121 17.4457 2.37328 15.9516 1.7155L15.4681 2.81378L14.9846 3.91206C16.1467 4.42366 17.1777 5.19205 18 6.15946L18.9143 5.38224ZM15.4681 2.81378L15.9516 1.7155C14.4575 1.05772 12.8337 0.747217 11.2024 0.807324L11.2465 2.00651L11.2907 3.2057C12.5596 3.15895 13.8225 3.40045 14.9846 3.91206L15.4681 2.81378ZM11.2465 2.00651L11.2024 0.807324C9.57097 0.86743 7.97444 1.29659 6.53279 2.06253L7.09581 3.12225L7.65883 4.18197C8.78012 3.58623 10.0219 3.25245 11.2907 3.2057L11.2465 2.00651ZM7.09581 3.12225L6.53279 2.06253C5.09113 2.82847 3.84188 3.91127 2.87894 5.22952L3.84794 5.93735L4.81695 6.64518C5.5659 5.61988 6.53755 4.7777 7.65883 4.18197L7.09581 3.12225ZM3.84794 5.93735L2.87894 5.22952C1.916 6.54776 1.26443 8.06716 0.97322 9.67347L2.15397 9.88752L3.33473 10.1016C3.56122 8.85223 4.068 7.67048 4.81695 6.64518L3.84794 5.93735ZM2.15397 9.88752L0.97322 9.67347C0.682011 11.2798 0.758739 12.9312 1.19764 14.5036L2.35345 14.181L3.50927 13.8583C3.16791 12.6354 3.10823 11.3509 3.33473 10.1016L2.15397 9.88752ZM2.35345 14.181L1.19764 14.5036C1.63653 16.076 2.42617 17.5284 3.5072 18.7517L4.4064 17.9571L5.3056 17.1624C4.4648 16.211 3.85064 15.0813 3.50927 13.8583L2.35345 14.181Z" fill="var(--stroke-0, #1E1E1E)" id="Icon"/>
</svg>