<?xml version="1.0" encoding="utf-8"?>
<svg xmlns="http://www.w3.org/2000/svg" fill="none" height="100%" overflow="visible" preserveAspectRatio="none" style="display: block;" viewBox="0 0 15 10" width="100%">
<path clip-rule="evenodd" d="M14.4484 0.862559C14.4484 0.386181 14.089 0 13.6457 0H12.843C12.3997 0 12.0403 0.386181 12.0403 0.862559V8.33807C12.0403 8.81444 12.3997 9.20062 12.843 9.20062H13.6457C14.089 9.20062 14.4484 8.81444 14.4484 8.33807V0.862559ZM8.85407 1.84012H9.65676C10.1001 1.84012 10.4594 2.23557 10.4594 2.72338V8.31736C10.4594 8.80518 10.1001 9.20062 9.65676 9.20062H8.85407C8.41075 9.20062 8.05138 8.80518 8.05138 8.31736V2.72338C8.05138 2.23557 8.41075 1.84012 8.85407 1.84012ZM5.59432 3.83359H4.79163C4.34832 3.83359 3.98895 4.23407 3.98895 4.72809V8.30611C3.98895 8.80013 4.34832 9.20062 4.79163 9.20062H5.59432C6.03763 9.20062 6.39701 8.80013 6.39701 8.30611V4.72809C6.39701 4.23407 6.03763 3.83359 5.59432 3.83359ZM1.60538 5.67372H0.802688C0.359376 5.67372 0 6.06848 0 6.55545V8.3189C0 8.80586 0.359376 9.20063 0.802688 9.20063H1.60538C2.04869 9.20063 2.40806 8.80586 2.40806 8.3189V6.55545C2.40806 6.06848 2.04869 5.67372 1.60538 5.67372Z" fill="var(--fill-0, black)" fill-rule="evenodd" id="Cellular Connection"/>
</svg>