<?xml version="1.0" encoding="utf-8"?>
<svg xmlns="http://www.w3.org/2000/svg" fill="none" height="100%" overflow="visible" preserveAspectRatio="none" style="display: block;" viewBox="0 0 307 48" width="100%">
<g id="PillarBiome" opacity="0.2">
<path d="M0 47.0782V0H18.6405C27.2387 0 33.8679 3.81893 33.8679 13.6955C33.8679 23.572 27.2387 27.3909 18.6405 27.3909H5.90719V47.0782H0ZM5.90719 5.26749V22.1235H19.2968C25.1384 22.1235 27.9607 19.4239 27.9607 13.6955C27.9607 7.96708 25.1384 5.26749 19.2968 5.26749H5.90719Z" fill="var(--fill-0, black)"/>
<path d="M42.0421 6.97942C40.5981 6.97942 38.7603 5.86008 38.7603 3.81893C38.7603 1.77778 40.5981 0.658436 42.0421 0.658436C43.5517 0.658436 45.3238 1.77778 45.3238 3.81893C45.3238 5.86008 43.5517 6.97942 42.0421 6.97942ZM39.4166 13.4979H44.6675V47.0782H39.4166V13.4979Z" fill="var(--fill-0, black)"/>
<path d="M52.0971 0H57.3479V47.0782H52.0971V0Z" fill="var(--fill-0, black)"/>
<path d="M64.3396 0H69.5905V47.0782H64.3396V0Z" fill="var(--fill-0, black)"/>
<path d="M97.5045 22.0576C97.5045 19.4239 96.0605 17.1852 90.6784 17.1852C84.3118 17.1852 82.2115 19.0288 81.8833 23.9012H76.6324C76.9606 17.4486 80.9644 12.5761 90.6784 12.5761C97.0451 12.5761 102.755 15.0782 102.755 23.177V39.5062C102.755 42.1399 103.215 43.5885 106.562 43.1934V46.8807C105.184 47.3416 104.462 47.4074 103.477 47.4074C100.327 47.4074 98.4234 46.5514 97.5045 42.8642H97.3732C95.2729 46.0247 91.5317 48 86.0183 48C79.2579 48 74.9916 44.1152 74.9916 38.4527C74.9916 30.8148 80.6362 28.8395 89.3001 27.1934C94.9447 26.1399 97.5045 25.4156 97.5045 22.0576ZM86.5434 43.3909C92.7788 43.3909 97.5045 40.5597 97.5045 34.107V28.5103C96.52 29.4979 93.3039 30.4198 89.7595 31.144C83.2616 32.5267 80.2424 34.1728 80.2424 38.1893C80.2424 41.4815 82.2115 43.3909 86.5434 43.3909Z" fill="var(--fill-0, black)"/>
<path d="M125.122 12.5761C126.369 12.5761 127.288 12.642 128.207 12.7737V18.0412H128.075C120.79 16.856 115.736 21.9918 115.736 29.1687V47.0782H110.485V13.4979H115.736V20.1481H115.867C117.639 15.7366 120.33 12.5761 125.122 12.5761Z" fill="var(--fill-0, black)"/>
<path d="M168.032 11.8519C168.032 17.6461 164.619 20.2798 160.747 21.5967V21.7284C165.669 22.5844 169.87 26.3374 169.87 33.3827C169.87 42.0741 163.7 47.0782 153.986 47.0782H133.771V0H152.674C162.256 0 168.032 4.54321 168.032 11.8519ZM139.678 19.6872H153.593C160.287 19.6872 162.125 16.7901 162.125 12.5103C162.125 8.23045 159.631 5.26749 154.249 5.26749H139.678V19.6872ZM139.678 24.9547V41.8107H154.577C162.125 41.8107 163.963 37.7942 163.963 33.3827C163.963 28.3128 160.812 24.9547 155.89 24.9547H139.678Z" fill="var(--fill-0, black)"/>
<path d="M178.505 6.97942C177.061 6.97942 175.223 5.86008 175.223 3.81893C175.223 1.77778 177.061 0.658436 178.505 0.658436C180.014 0.658436 181.787 1.77778 181.787 3.81893C181.787 5.86008 180.014 6.97942 178.505 6.97942ZM175.879 13.4979H181.13V47.0782H175.879V13.4979Z" fill="var(--fill-0, black)"/>
<path d="M203.509 48C193.27 48 187.1 40.7572 187.1 30.2881C187.1 19.8189 193.27 12.5761 203.509 12.5761C213.683 12.5761 219.853 19.8189 219.853 30.2881C219.853 40.7572 213.683 48 203.509 48ZM203.509 43.3909C210.992 43.3909 214.602 37.465 214.602 30.2881C214.602 23.1111 210.992 17.1852 203.509 17.1852C195.961 17.1852 192.351 23.1111 192.351 30.2881C192.351 37.465 195.961 43.3909 203.509 43.3909Z" fill="var(--fill-0, black)"/>
<path d="M260.138 12.5761C266.899 12.5761 270.181 16.5926 270.181 23.6379V47.0782H264.93V24.9547C264.93 20.6091 264.076 17.1852 258.826 17.1852C253.575 17.1852 250.293 20.9383 250.293 26.1399V47.0782H245.042V24.9547C245.042 20.6091 244.189 17.1852 238.938 17.1852C233.687 17.1852 230.406 20.9383 230.406 26.1399V47.0782H225.155V13.4979H230.406V17.5144H230.537C232.309 15.144 235.197 12.5761 240.251 12.5761C245.042 12.5761 247.799 14.6173 249.177 18.3704H249.309C251.606 15.2099 255.084 12.5761 260.138 12.5761Z" fill="var(--fill-0, black)"/>
<path d="M291.444 43.3909C298.139 43.3909 300.633 39.0453 301.224 36.7407H306.475C304.768 42.9959 299.977 48 291.641 48C281.468 48 275.298 40.823 275.298 30.2881C275.298 19.0947 281.599 12.5761 291.379 12.5761C301.88 12.5761 307 19.7531 307 31.6708H280.549C280.549 37.7284 284.159 43.3909 291.444 43.3909ZM291.379 17.1852C285.078 17.1852 280.549 21.6626 280.549 27.0617H301.749C301.749 21.6626 297.68 17.1852 291.379 17.1852Z" fill="var(--fill-0, black)"/>
</g>
</svg>