<?xml version="1.0" encoding="utf-8"?>
<svg xmlns="http://www.w3.org/2000/svg" fill="none" height="100%" overflow="visible" preserveAspectRatio="none" style="display: block;" viewBox="0 0 29 29" width="100%">
<path clip-rule="evenodd" d="M2.7 8.775C2.7 5.41987 5.41987 2.7 8.775 2.7C11.1603 2.7 13.2271 4.07455 14.2218 6.08092C14.7424 7.13092 15.8318 8.1 17.282 8.1H22.05C24.2867 8.1 26.1 9.91325 26.1 12.15C26.1 13.3684 25.5636 14.4599 24.7097 15.2044L23.692 16.0915L25.4662 18.1267L26.4839 17.2396C27.9011 16.0042 28.8 14.1813 28.8 12.15C28.8 8.42207 25.778 5.4 22.05 5.4H17.282C17.1213 5.4 16.8358 5.27488 16.6408 4.88162C15.208 1.99152 12.2253 0 8.775 0C3.9287 0 0 3.9287 0 8.775V11.5269C0 13.851 1.07689 15.9246 2.75368 17.2738L3.80547 18.1201L5.4981 16.0165L4.44632 15.1702C3.37909 14.3115 2.7 12.999 2.7 11.5269V8.775ZM13.1272 13.3136C13.8302 12.6107 14.9698 12.6107 15.6728 13.3136L21.2045 18.8455L22.1593 19.8L20.25 21.7093L19.2955 20.7545L15.75 17.2092V27.45V28.8H13.05V27.45V17.2092L9.50459 20.7545L8.55 21.7093L6.64081 19.8L7.59541 18.8455L13.1272 13.3136Z" fill="var(--fill-0, #1D1D1D)" fill-rule="evenodd" id="Vector"/>
</svg>