<?xml version="1.0" encoding="utf-8"?>
<svg xmlns="http://www.w3.org/2000/svg" fill="none" height="100%" overflow="visible" preserveAspectRatio="none" style="display: block;" viewBox="0 0 17 14" width="100%">
<path d="M10.6837 10.2817C10.9482 10.5462 11.377 10.5462 11.6415 10.2817C11.906 10.0172 11.906 9.58841 11.6415 9.32392L11.1626 9.80282L10.6837 10.2817ZM8.45356 7.09375L8.93246 6.61485L8.45356 6.13595L7.97466 6.61485L8.45356 7.09375ZM5.26559 9.32392C5.0011 9.58841 5.0011 10.0172 5.26559 10.2817C5.53008 10.5462 5.9589 10.5462 6.22339 10.2817L5.74449 9.80282L5.26559 9.32392ZM7.77629 13.1892C7.77629 13.5632 8.07952 13.8664 8.45356 13.8664C8.82761 13.8664 9.13083 13.5632 9.13083 13.1892H8.45356H7.77629ZM13.8117 10.8269C13.4832 11.0059 13.3622 11.4173 13.5412 11.7457C13.7202 12.0741 14.1316 12.1952 14.46 12.0161L14.1358 11.4215L13.8117 10.8269ZM12.5172 5.06195L12.5176 4.38468H12.5172V5.06195ZM11.6638 5.06195L11.0081 5.23147C11.0854 5.53039 11.3551 5.73921 11.6638 5.73921V5.06195ZM1.85065 10.4545C2.09834 10.7348 2.52635 10.7612 2.80663 10.5135C3.08691 10.2658 3.11334 9.83781 2.86565 9.55752L2.35815 10.006L1.85065 10.4545ZM11.1626 9.80282L11.6415 9.32392L8.93246 6.61485L8.45356 7.09375L7.97466 7.57265L10.6837 10.2817L11.1626 9.80282ZM8.45356 7.09375L7.97466 6.61485L5.26559 9.32392L5.74449 9.80282L6.22339 10.2817L8.93246 7.57265L8.45356 7.09375ZM8.45356 7.09375H7.77629V13.1892H8.45356H9.13083V7.09375H8.45356ZM14.1358 11.4215L14.46 12.0161C15.2527 11.584 15.8789 10.9002 16.2398 10.0726L15.619 9.80189L14.9982 9.53117C14.7576 10.0829 14.3401 10.5388 13.8117 10.8269L14.1358 11.4215ZM15.619 9.80189L16.2398 10.0726C16.6007 9.24505 16.6757 8.32088 16.453 7.44595L15.7966 7.613L15.1403 7.78006C15.2888 8.36335 15.2388 8.97946 14.9982 9.53117L15.619 9.80189ZM15.7966 7.613L16.453 7.44595C16.2303 6.57102 15.7226 5.79517 15.01 5.24084L14.5941 5.77541L14.1783 6.30999C14.6534 6.67954 14.9918 7.19678 15.1403 7.78006L15.7966 7.613ZM14.5941 5.77541L15.01 5.24084C14.2974 4.68651 13.4204 4.38527 12.5176 4.38468L12.5172 5.06195L12.5167 5.73921C13.1186 5.73961 13.7032 5.94043 14.1783 6.30999L14.5941 5.77541ZM12.5172 5.06195V4.38468H11.6638V5.06195V5.73921H12.5172V5.06195ZM11.6638 5.06195L12.3195 4.89242C12.0889 4.00039 11.6591 3.17224 11.0623 2.47025L10.5463 2.9089L10.0303 3.34756C10.4944 3.89356 10.8287 4.53767 11.0081 5.23147L11.6638 5.06195ZM10.5463 2.9089L11.0623 2.47025C10.4656 1.76825 9.71742 1.21068 8.87416 0.839432L8.60127 1.45929L8.32838 2.07915C8.98425 2.36789 9.56613 2.80156 10.0303 3.34756L10.5463 2.9089ZM8.60127 1.45929L8.87416 0.839432C8.0309 0.468189 7.11446 0.292941 6.19372 0.326865L6.21866 1.00367L6.24359 1.68048C6.95972 1.6541 7.67251 1.7904 8.32838 2.07915L8.60127 1.45929ZM6.21866 1.00367L6.19372 0.326865C5.27298 0.360789 4.37191 0.603001 3.55826 1.03529L3.87603 1.63339L4.19379 2.23148C4.82663 1.89526 5.52746 1.70687 6.24359 1.68048L6.21866 1.00367ZM3.87603 1.63339L3.55826 1.03529C2.74461 1.46758 2.03954 2.0787 1.49606 2.82271L2.04296 3.2222L2.58986 3.62169C3.01256 3.04302 3.56095 2.56771 4.19379 2.23148L3.87603 1.63339ZM2.04296 3.2222L1.49606 2.82271C0.952589 3.56671 0.584851 4.42424 0.420495 5.33083L1.0869 5.45164L1.75331 5.57245C1.88114 4.86733 2.16716 4.20037 2.58986 3.62169L2.04296 3.2222ZM1.0869 5.45164L0.420495 5.33083C0.25614 6.23741 0.299445 7.16946 0.547153 8.0569L1.19949 7.87482L1.85182 7.69273C1.65916 7.0025 1.62547 6.27758 1.75331 5.57245L1.0869 5.45164ZM1.19949 7.87482L0.547153 8.0569C0.794862 8.94434 1.24053 9.76408 1.85065 10.4545L2.35815 10.006L2.86565 9.55752C2.39111 9.02054 2.04448 8.38296 1.85182 7.69273L1.19949 7.87482Z" fill="var(--stroke-0, #1E1E1E)" id="Icon"/>
</svg>