<?xml version="1.0" encoding="utf-8"?>
<svg xmlns="http://www.w3.org/2000/svg" fill="none" height="100%" overflow="visible" preserveAspectRatio="none" style="display: block;" viewBox="0 0 13 10" width="100%">
<path clip-rule="evenodd" d="M6.45008 1.85593C8.32168 1.85601 10.1217 2.54989 11.4781 3.79417C11.5803 3.89023 11.7435 3.88902 11.8441 3.79145L12.8205 2.84067C12.8715 2.79118 12.8999 2.72415 12.8994 2.65441C12.899 2.58466 12.8698 2.51795 12.8183 2.46905C9.2581 -0.823015 3.6415 -0.823015 0.0813143 2.46905C0.0297426 2.51792 0.000481437 2.5846 5.88771e-06 2.65435C-0.000469662 2.72409 0.0278796 2.79115 0.0787804 2.84067L1.05545 3.79145C1.15598 3.88917 1.31937 3.89038 1.42145 3.79417C2.77805 2.54981 4.57829 1.85592 6.45008 1.85593ZM6.44755 5.03177C7.46896 5.03171 8.45392 5.4168 9.21105 6.11223C9.31345 6.21092 9.47477 6.20878 9.57459 6.1074L10.5433 5.1146C10.5943 5.06252 10.6226 4.99188 10.6219 4.91847C10.6211 4.84506 10.5914 4.77501 10.5394 4.724C8.23379 2.54858 4.66328 2.54858 2.35768 4.724C2.3056 4.77501 2.27589 4.84509 2.2752 4.91853C2.27452 4.99196 2.30293 5.0626 2.35405 5.1146L3.32247 6.1074C3.4223 6.20878 3.58361 6.21092 3.68602 6.11223C4.44264 5.41726 5.42682 5.0322 6.44755 5.03177ZM8.34723 7.13397C8.34868 7.21325 8.32079 7.28968 8.27015 7.34523L6.63216 9.19246C6.58415 9.24675 6.51868 9.2773 6.45038 9.2773C6.38207 9.2773 6.31661 9.24675 6.26859 9.19246L4.63034 7.34523C4.57973 7.28964 4.55189 7.21319 4.55339 7.13391C4.55489 7.05463 4.5856 6.97956 4.63826 6.92642C5.68434 5.93769 7.21642 5.93769 8.26249 6.92642C8.31512 6.9796 8.34578 7.0547 8.34723 7.13397Z" fill="var(--fill-0, black)" fill-rule="evenodd" id="Wifi"/>
</svg>