<?xml version="1.0" encoding="utf-8"?>
<svg xmlns="http://www.w3.org/2000/svg" fill="none" height="100%" overflow="visible" preserveAspectRatio="none" style="display: block;" viewBox="0 0 14 13" width="100%">
<path clip-rule="evenodd" d="M10.6337 5.25484L6.82404 1.44521L3.01441 5.25484V11.1296H5.13087V9.01316C5.13087 8.07801 5.88893 7.31995 6.82404 7.31995C7.75915 7.31995 8.5172 8.07801 8.5172 9.01316V11.1296H10.6337V5.25484ZM11.7173 4.54262L7.42266 0.247959C7.09205 -0.0826518 6.55602 -0.0826543 6.22541 0.247959L1.93066 4.54271C1.93076 4.54261 1.93055 4.54282 1.93066 4.54271L0.448969 6.0244L0 6.47337L0.897942 7.37131L1.34691 6.92234L1.74453 6.52472V11.7646V12.3995H2.37947H5.13087H6.40075H7.24733H8.5172H11.2686H11.9035V11.7646V6.52472L12.3012 6.92234L12.7501 7.37131L13.6481 6.47337L13.1991 6.0244L11.7173 4.54262C11.7175 4.54279 11.7171 4.54245 11.7173 4.54262ZM7.24733 9.01316V11.1296H6.40075V9.01316C6.40075 8.77933 6.59025 8.58986 6.82404 8.58986C7.05782 8.58986 7.24733 8.77933 7.24733 9.01316Z" fill="var(--fill-0, #0D8C7D)" fill-rule="evenodd" id="Vector"/>
</svg>