<?xml version="1.0" encoding="utf-8"?>
<svg xmlns="http://www.w3.org/2000/svg" fill="none" height="100%" overflow="visible" preserveAspectRatio="none" style="display: block;" viewBox="0 0 19 17" width="100%">
<path clip-rule="evenodd" d="M14.1307 6.98299L9.06825 1.92049L4.00575 6.98299V14.7898H6.81825V11.9773C6.81825 10.7346 7.8256 9.72725 9.06825 9.72725C10.3109 9.72725 11.3182 10.7346 11.3182 11.9773V14.7898H14.1307V6.98299ZM15.5707 6.03654L9.86373 0.329505C9.4244 -0.109833 8.71208 -0.109837 8.27275 0.329505L2.56559 6.03666C2.56572 6.03653 2.56544 6.03681 2.56559 6.03666L0.596621 8.00563L0 8.60225L1.19325 9.79549L1.78987 9.19887L2.31825 8.67049V15.6335V16.4773H3.162H6.81825H8.50575H9.63075H11.3182H14.9745H15.8182V15.6335V8.67049L16.3466 9.19887L16.9432 9.79549L18.1365 8.60225L17.5398 8.00563L15.5707 6.03654C15.571 6.03677 15.5705 6.03632 15.5707 6.03654ZM9.63075 11.9773V14.7898H8.50575V11.9773C8.50575 11.6666 8.75758 11.4148 9.06825 11.4148C9.3789 11.4148 9.63075 11.6666 9.63075 11.9773Z" fill="var(--fill-0, #0D8C7D)" fill-rule="evenodd" id="Vector"/>
</svg>