<?xml version="1.0" encoding="utf-8"?>
<svg xmlns="http://www.w3.org/2000/svg" fill="none" height="100%" overflow="visible" preserveAspectRatio="none" style="display: block;" viewBox="0 0 18 18" width="100%">
<path clip-rule="evenodd" d="M16.3125 9C16.3125 13.0386 13.0386 16.3125 9 16.3125C4.96142 16.3125 1.6875 13.0386 1.6875 9C1.6875 4.96142 4.96142 1.6875 9 1.6875C13.0386 1.6875 16.3125 4.96142 16.3125 9ZM18 9C18 13.9706 13.9706 18 9 18C4.02943 18 0 13.9706 0 9C0 4.02943 4.02943 0 9 0C13.9706 0 18 4.02943 18 9ZM12.9716 7.34662L13.5683 6.75L12.375 5.55676L11.7784 6.15338L7.3125 10.6193L6.22162 9.52838L5.625 8.93176L4.43176 10.125L5.02838 10.7216L6.71588 12.4091C7.04538 12.7386 7.57962 12.7386 7.90912 12.4091L12.9716 7.34662Z" fill="var(--fill-0, #0D8C7D)" fill-rule="evenodd" id="Vector"/>
</svg>