<?xml version="1.0" encoding="utf-8"?>
<svg xmlns="http://www.w3.org/2000/svg" fill="none" height="100%" overflow="visible" preserveAspectRatio="none" style="display: block;" viewBox="0 0 19 12" width="100%">
<path clip-rule="evenodd" d="M18.0605 1.0782C18.0605 0.482726 17.6113 0 17.0571 0H16.0538C15.4996 0 15.0504 0.482726 15.0504 1.0782V10.4226C15.0504 11.0181 15.4996 11.5008 16.0538 11.5008H17.0571C17.6113 11.5008 18.0605 11.0181 18.0605 10.4226V1.0782ZM11.0676 2.30016H12.0709C12.6251 2.30016 13.0743 2.79447 13.0743 3.40423V10.3967C13.0743 11.0065 12.6251 11.5008 12.0709 11.5008H11.0676C10.5134 11.5008 10.0642 11.0065 10.0642 10.3967V3.40423C10.0642 2.79447 10.5134 2.30016 11.0676 2.30016ZM6.9929 4.79198H5.98954C5.4354 4.79198 4.98618 5.29259 4.98618 5.91011V10.3826C4.98618 11.0002 5.4354 11.5008 5.98954 11.5008H6.9929C7.54704 11.5008 7.99626 11.0002 7.99626 10.3826V5.91011C7.99626 5.29259 7.54704 4.79198 6.9929 4.79198ZM2.00672 7.09215H1.00336C0.44922 7.09215 0 7.5856 0 8.19431V10.3986C0 11.0073 0.44922 11.5008 1.00336 11.5008H2.00672C2.56086 11.5008 3.01008 11.0073 3.01008 10.3986V8.19431C3.01008 7.5856 2.56086 7.09215 2.00672 7.09215Z" fill="var(--fill-0, black)" fill-rule="evenodd" id="Cellular Connection"/>
</svg>