<?xml version="1.0" encoding="utf-8"?>
<svg xmlns="http://www.w3.org/2000/svg" fill="none" height="100%" overflow="visible" preserveAspectRatio="none" style="display: block;" viewBox="0 0 12 14" width="100%">
<path clip-rule="evenodd" d="M5.71445 0C4.19489 0 2.96305 1.23184 2.96305 2.7514V3.17469C2.96305 4.69426 4.19489 5.9261 5.71445 5.9261H6.13774C7.65728 5.9261 8.88915 4.69426 8.88915 3.17469V2.7514C8.88915 1.23184 7.65728 0 6.13774 0H5.71445ZM4.23293 2.7514C4.23293 1.93318 4.89623 1.26988 5.71445 1.26988H6.13774C6.95597 1.26988 7.61927 1.93318 7.61927 2.7514V3.17469C7.61927 3.99292 6.95597 4.65622 6.13774 4.65622H5.71445C4.89623 4.65622 4.23293 3.99292 4.23293 3.17469V2.7514ZM1.26988 12.2755V11.1503C1.96372 9.76765 3.38048 8.88915 4.93513 8.88915H6.91707C8.47169 8.88915 9.88845 9.76765 10.5823 11.1503V12.2755H1.26988ZM4.93513 7.61927C2.84015 7.61927 0.936357 8.83733 0.0584398 10.7395L0 10.8662V11.0056V12.9104V13.5454H0.634939H11.2173H11.8522V12.9104V11.0056V10.8662L11.7938 10.7395C10.9159 8.83733 9.01207 7.61927 6.91707 7.61927H4.93513Z" fill="var(--fill-0, #1D1D1D)" fill-rule="evenodd" id="Vector"/>
</svg>