<?xml version="1.0" encoding="utf-8"?>
<svg xmlns="http://www.w3.org/2000/svg" fill="none" height="100%" overflow="visible" preserveAspectRatio="none" style="display: block;" viewBox="0 0 1214 189" width="100%">
<g id="PillarBiome" opacity="0.2">
<path d="M0 185.37V0H73.7118C107.713 0 133.927 15.037 133.927 53.9259C133.927 92.8148 107.713 107.852 73.7118 107.852H23.3594V185.37H0ZM23.3594 20.7407V87.1111H76.3073C99.4071 87.1111 110.568 76.4815 110.568 53.9259C110.568 31.3704 99.4071 20.7407 76.3073 20.7407H23.3594Z" fill="var(--fill-0, black)"/>
<path d="M166.251 27.4815C160.541 27.4815 153.274 23.0741 153.274 15.037C153.274 7 160.541 2.59259 166.251 2.59259C172.221 2.59259 179.228 7 179.228 15.037C179.228 23.0741 172.221 27.4815 166.251 27.4815ZM155.869 53.1481H176.633V185.37H155.869V53.1481Z" fill="var(--fill-0, black)"/>
<path d="M206.013 0H226.777V185.37H206.013V0Z" fill="var(--fill-0, black)"/>
<path d="M254.425 0H275.188V185.37H254.425V0Z" fill="var(--fill-0, black)"/>
<path d="M385.572 86.8518C385.572 76.4815 379.862 67.6667 358.579 67.6667C333.402 67.6667 325.097 74.9259 323.799 94.1111H303.035C304.333 68.7037 320.165 49.5185 358.579 49.5185C383.755 49.5185 406.335 59.3704 406.335 91.2593V155.556C406.335 165.926 408.152 171.63 421.389 170.074V184.593C415.939 186.407 413.084 186.667 409.191 186.667C396.732 186.667 389.205 183.296 385.572 168.778H385.052C376.747 181.222 361.953 189 340.151 189C313.417 189 296.546 173.704 296.546 151.407C296.546 121.333 318.868 113.556 353.128 107.074C375.449 102.926 385.572 100.074 385.572 86.8518ZM342.227 170.852C366.884 170.852 385.572 159.704 385.572 134.296V112.259C381.678 116.148 368.96 119.778 354.945 122.63C329.25 128.074 317.31 134.556 317.31 150.37C317.31 163.333 325.097 170.852 342.227 170.852Z" fill="var(--fill-0, black)"/>
<path d="M494.781 49.5185C499.712 49.5185 503.346 49.7778 506.979 50.2963V71.037H506.46C477.651 66.3704 457.665 86.5926 457.665 114.852V185.37H436.901V53.1481H457.665V79.3333H458.184C465.192 61.963 475.834 49.5185 494.781 49.5185Z" fill="var(--fill-0, black)"/>
<path d="M664.467 46.6667C664.467 69.4815 650.97 79.8519 635.657 85.037V85.5556C655.123 88.9259 671.734 103.704 671.734 131.444C671.734 165.667 647.336 185.37 608.923 185.37H528.982V0H603.732C641.626 0 664.467 17.8889 664.467 46.6667ZM552.342 77.5185H607.366C633.84 77.5185 641.107 66.1111 641.107 49.2593C641.107 32.4074 631.244 20.7407 609.961 20.7407H552.342V77.5185ZM552.342 98.2593V164.63H611.259C641.107 164.63 648.375 148.815 648.375 131.444C648.375 111.481 635.916 98.2593 616.45 98.2593H552.342Z" fill="var(--fill-0, black)"/>
<path d="M705.879 27.4815C700.169 27.4815 692.901 23.0741 692.901 15.037C692.901 7 700.169 2.59259 705.879 2.59259C711.849 2.59259 718.856 7 718.856 15.037C718.856 23.0741 711.849 27.4815 705.879 27.4815ZM695.497 53.1481H716.261V185.37H695.497V53.1481Z" fill="var(--fill-0, black)"/>
<path d="M804.757 189C764.267 189 739.87 160.481 739.87 119.259C739.87 78.037 764.267 49.5185 804.757 49.5185C844.987 49.5185 869.384 78.037 869.384 119.259C869.384 160.481 844.987 189 804.757 189ZM804.757 170.852C834.345 170.852 848.62 147.519 848.62 119.259C848.62 91 834.345 67.6667 804.757 67.6667C774.909 67.6667 760.633 91 760.633 119.259C760.633 147.519 774.909 170.852 804.757 170.852Z" fill="var(--fill-0, black)"/>
<path d="M1028.69 49.5185C1055.42 49.5185 1068.4 65.3333 1068.4 93.0741V185.37H1047.64V98.2593C1047.64 81.1482 1044.26 67.6667 1023.5 67.6667C1002.74 67.6667 989.758 82.4444 989.758 102.926V185.37H968.994V98.2593C968.994 81.1482 965.62 67.6667 944.856 67.6667C924.092 67.6667 911.115 82.4444 911.115 102.926V185.37H890.351V53.1481H911.115V68.963H911.634C918.642 59.6296 930.062 49.5185 950.047 49.5185C968.994 49.5185 979.895 57.5556 985.346 72.3333H985.865C994.949 59.8889 1008.71 49.5185 1028.69 49.5185Z" fill="var(--fill-0, black)"/>
<path d="M1152.49 170.852C1178.96 170.852 1188.82 153.741 1191.16 144.667H1211.92C1205.18 169.296 1186.23 189 1153.27 189C1113.04 189 1088.64 160.741 1088.64 119.259C1088.64 75.1852 1113.55 49.5185 1152.23 49.5185C1193.76 49.5185 1214 77.7778 1214 124.704H1109.4C1109.4 148.556 1123.68 170.852 1152.49 170.852ZM1152.23 67.6667C1127.31 67.6667 1109.4 85.2963 1109.4 106.556H1193.24C1193.24 85.2963 1177.14 67.6667 1152.23 67.6667Z" fill="var(--fill-0, black)"/>
</g>
</svg>