<?xml version="1.0" encoding="utf-8"?>
<svg xmlns="http://www.w3.org/2000/svg" fill="none" height="100%" overflow="visible" preserveAspectRatio="none" style="display: block;" viewBox="0 0 752 117" width="100%">
<g id="PillarBiome" opacity="0.2">
<path d="M0 114.753V0H45.66C66.7215 0 82.9598 9.30865 82.9598 33.3827C82.9598 57.4568 66.7215 66.7654 45.66 66.7654H14.4697V114.753H0ZM14.4697 12.8395V53.9259H47.2678C61.5767 53.9259 68.49 47.3457 68.49 33.3827C68.49 19.4198 61.5767 12.8395 47.2678 12.8395H14.4697Z" fill="var(--fill-0, black)"/>
<path d="M102.983 17.0123C99.4455 17.0123 94.9438 14.2839 94.9438 9.30865C94.9438 4.33333 99.4455 1.60494 102.983 1.60494C106.68 1.60494 111.021 4.33333 111.021 9.30865C111.021 14.2839 106.68 17.0123 102.983 17.0123ZM96.5515 32.9012H109.413V114.753H96.5515V32.9012Z" fill="var(--fill-0, black)"/>
<path d="M127.612 0H140.474V114.753H127.612V0Z" fill="var(--fill-0, black)"/>
<path d="M157.601 0H170.463V114.753H157.601V0Z" fill="var(--fill-0, black)"/>
<path d="M238.838 53.7654C238.838 47.3457 235.301 41.8889 222.118 41.8889C206.523 41.8889 201.378 46.3827 200.574 58.2593H187.712C188.516 42.5309 198.323 30.6543 222.118 30.6543C237.713 30.6543 251.7 36.7531 251.7 56.4938V96.2963C251.7 102.716 252.826 106.247 261.025 105.284V114.272C257.649 115.395 255.881 115.556 253.469 115.556C245.752 115.556 241.089 113.469 238.838 104.481H238.517C233.372 112.185 224.208 117 210.703 117C194.143 117 183.693 107.531 183.693 93.7284C183.693 75.1111 197.519 70.2963 218.742 66.284C232.568 63.716 238.838 61.9506 238.838 53.7654ZM211.989 105.765C227.263 105.765 238.838 98.8642 238.838 83.1358V69.4938C236.427 71.9012 228.549 74.1481 219.867 75.9136C203.95 79.284 196.555 83.2963 196.555 93.0864C196.555 101.111 201.378 105.765 211.989 105.765Z" fill="var(--fill-0, black)"/>
<path d="M306.487 30.6543C309.542 30.6543 311.792 30.8148 314.043 31.1358V43.9753H313.722C295.876 41.0864 283.496 53.6049 283.496 71.0988V114.753H270.634V32.9012H283.496V49.1111H283.818C288.159 38.358 294.75 30.6543 306.487 30.6543Z" fill="var(--fill-0, black)"/>
<path d="M411.597 28.8889C411.597 43.0123 403.237 49.4321 393.751 52.642V52.963C405.809 55.0494 416.099 64.1975 416.099 81.3704C416.099 102.556 400.986 114.753 377.191 114.753H327.673V0H373.976C397.449 0 411.597 11.0741 411.597 28.8889ZM342.142 47.9877H376.227C392.626 47.9877 397.127 40.9259 397.127 30.4938C397.127 20.0617 391.018 12.8395 377.834 12.8395H342.142V47.9877ZM342.142 60.8272V101.914H378.638C397.127 101.914 401.629 92.1235 401.629 81.3704C401.629 69.0123 393.912 60.8272 381.854 60.8272H342.142Z" fill="var(--fill-0, black)"/>
<path d="M437.25 17.0123C433.713 17.0123 429.211 14.2839 429.211 9.30865C429.211 4.33333 433.713 1.60494 437.25 1.60494C440.947 1.60494 445.288 4.33333 445.288 9.30865C445.288 14.2839 440.947 17.0123 437.25 17.0123ZM430.819 32.9012H443.681V114.753H430.819V32.9012Z" fill="var(--fill-0, black)"/>
<path d="M498.498 117C473.418 117 458.305 99.3457 458.305 73.8272C458.305 48.3086 473.418 30.6543 498.498 30.6543C523.419 30.6543 538.531 48.3086 538.531 73.8272C538.531 99.3457 523.419 117 498.498 117ZM498.498 105.765C516.827 105.765 525.669 91.321 525.669 73.8272C525.669 56.3333 516.827 41.8889 498.498 41.8889C480.009 41.8889 471.167 56.3333 471.167 73.8272C471.167 91.321 480.009 105.765 498.498 105.765Z" fill="var(--fill-0, black)"/>
<path d="M637.212 30.6543C653.772 30.6543 661.81 40.4444 661.81 57.6173V114.753H648.948V60.8272C648.948 50.2346 646.858 41.8889 633.996 41.8889C621.134 41.8889 613.096 51.037 613.096 63.716V114.753H600.234V60.8272C600.234 50.2346 598.144 41.8889 585.282 41.8889C572.42 41.8889 564.381 51.037 564.381 63.716V114.753H551.519V32.9012H564.381V42.6914H564.702C569.043 36.9136 576.117 30.6543 588.497 30.6543C600.234 30.6543 606.986 35.6296 610.363 44.7778H610.684C616.311 37.0741 624.832 30.6543 637.212 30.6543Z" fill="var(--fill-0, black)"/>
<path d="M713.896 105.765C730.295 105.765 736.405 95.1728 737.852 89.5556H750.714C746.534 104.802 734.797 117 714.379 117C689.459 117 674.346 99.5062 674.346 73.8272C674.346 46.5432 689.78 30.6543 713.736 30.6543C739.46 30.6543 752 48.1481 752 77.1975H687.208C687.208 91.963 696.05 105.765 713.896 105.765ZM713.736 41.8889C698.301 41.8889 687.208 52.8025 687.208 65.963H739.138C739.138 52.8025 729.17 41.8889 713.736 41.8889Z" fill="var(--fill-0, black)"/>
</g>
</svg>