<?xml version="1.0" encoding="utf-8"?>
<svg xmlns="http://www.w3.org/2000/svg" fill="none" height="100%" overflow="visible" preserveAspectRatio="none" style="display: block;" viewBox="0 0 16 18" width="100%">
<path clip-rule="evenodd" d="M7.59375 0C5.57445 0 3.9375 1.63695 3.9375 3.65625V4.21875C3.9375 6.23805 5.57445 7.875 7.59375 7.875H8.15625C10.1755 7.875 11.8125 6.23805 11.8125 4.21875V3.65625C11.8125 1.63695 10.1755 0 8.15625 0H7.59375ZM5.625 3.65625C5.625 2.56894 6.50644 1.6875 7.59375 1.6875H8.15625C9.24356 1.6875 10.125 2.56894 10.125 3.65625V4.21875C10.125 5.30606 9.24356 6.1875 8.15625 6.1875H7.59375C6.50644 6.1875 5.625 5.30606 5.625 4.21875V3.65625ZM1.6875 16.3125V14.8173C2.60953 12.9799 4.49222 11.8125 6.55813 11.8125H9.19187C11.2578 11.8125 13.1405 12.9799 14.0625 14.8173V16.3125H1.6875ZM6.55813 10.125C3.77418 10.125 1.2443 11.7437 0.0776588 14.2714L0 14.4397V14.625V17.1562V18H0.84375H14.9062H15.75V17.1562V14.625V14.4397L15.6724 14.2714C14.5057 11.7437 11.9759 10.125 9.19187 10.125H6.55813Z" fill="var(--fill-0, #1D1D1D)" fill-rule="evenodd" id="Vector"/>
</svg>