<?xml version="1.0" encoding="utf-8"?>
<svg xmlns="http://www.w3.org/2000/svg" fill="none" height="100%" overflow="visible" preserveAspectRatio="none" style="display: block;" viewBox="0 0 13 14" width="100%">
<path clip-rule="evenodd" d="M4.23293 0V0.634939V1.26988H8.46585V0.634939V0H9.73573V0.634939V1.26988H11.4289H12.6988V2.53976V11.0056C12.6988 12.1745 11.7512 13.1221 10.5823 13.1221H2.11646C0.947574 13.1221 0 12.1745 0 11.0056V2.53976V1.26988H1.26988H2.96305V0.634939V0H4.23293ZM1.26988 2.53976H11.4289V4.65622H1.26988V2.53976ZM1.26988 5.9261V11.0056C1.26988 11.4732 1.64891 11.8522 2.11646 11.8522H10.5823C11.0499 11.8522 11.4289 11.4732 11.4289 11.0056V5.9261H1.26988Z" fill="var(--fill-0, #1D1D1D)" fill-rule="evenodd" id="Vector"/>
</svg>