<?xml version="1.0" encoding="utf-8"?>
<svg xmlns="http://www.w3.org/2000/svg" fill="none" height="100%" overflow="visible" preserveAspectRatio="none" style="display: block;" viewBox="0 0 17 17" width="100%">
<path clip-rule="evenodd" d="M15.3444 8.46585C15.3444 12.2648 12.2648 15.3444 8.46585 15.3444C4.66696 15.3444 1.58735 12.2648 1.58735 8.46585C1.58735 4.66696 4.66696 1.58735 8.46585 1.58735C12.2648 1.58735 15.3444 4.66696 15.3444 8.46585ZM16.9317 8.46585C16.9317 13.1414 13.1414 16.9317 8.46585 16.9317C3.79029 16.9317 0 13.1414 0 8.46585C0 3.79029 3.79029 0 8.46585 0C13.1414 0 16.9317 3.79029 16.9317 8.46585ZM12.2017 6.9106L12.763 6.34939L11.6405 5.22697L11.0794 5.78818L6.87851 9.98901L5.85237 8.96287L5.29116 8.40166L4.16873 9.52408L4.72995 10.0853L6.31729 11.6726C6.62724 11.9826 7.12977 11.9826 7.43972 11.6726L12.2017 6.9106Z" fill="var(--fill-0, #0D8C7D)" fill-rule="evenodd" id="Vector"/>
</svg>